{
	"asset":{
		"generator":"Khronos glTF Blender I/O v4.3.47",
		"version":"2.0"
	},
	"scene":0,
	"scenes":[
		{
			"name":"Scene",
			"nodes":[
				0
			]
		}
	],
	"nodes":[
		{
			"mesh":0,
			"name":"bubble"
		}
	],
	"materials":[
		{
			"doubleSided":true,
			"name":"bubble"
		}
	],
	"meshes":[
		{
			"name":"\u041a\u0443\u0431.005",
			"primitives":[
				{
					"attributes":{
						"POSITION":0,
						"NORMAL":1,
						"TEXCOORD_0":2
					},
					"indices":3,
					"material":0
				}
			]
		}
	],
	"accessors":[
		{
			"bufferView":0,
			"componentType":5126,
			"count":125,
			"max":[
				0.3173437714576721,
				0.6942968368530273,
				0.3173437714576721
			],
			"min":[
				-0.3173437714576721,
				0.05960927903652191,
				-0.3173437714576721
			],
			"type":"VEC3"
		},
		{
			"bufferView":1,
			"componentType":5126,
			"count":125,
			"type":"VEC3"
		},
		{
			"bufferView":2,
			"componentType":5126,
			"count":125,
			"type":"VEC2"
		},
		{
			"bufferView":3,
			"componentType":5123,
			"count":576,
			"type":"SCALAR"
		}
	],
	"bufferViews":[
		{
			"buffer":0,
			"byteLength":1500,
			"byteOffset":0,
			"target":34962
		},
		{
			"buffer":0,
			"byteLength":1500,
			"byteOffset":1500,
			"target":34962
		},
		{
			"buffer":0,
			"byteLength":1000,
			"byteOffset":3000,
			"target":34962
		},
		{
			"buffer":0,
			"byteLength":1152,
			"byteOffset":4000,
			"target":34963
		}
	],
	"buffers":[
		{
			"byteLength":5152,
			"uri":"bubble.bin"
		}
	]
}
